STARTFONT 2.1
COMMENT
COMMENT Converted from OpenType font "manrope-light.otf" by "otf2bdf 3.0".
COMMENT
FONT -FreeType-Manrope Light-Medium-R-Normal--39-280-100-100-P-170-ISO10646-1
SIZE 28 100 100
FONTBOUNDINGBOX 36 47 -1 -9
STARTPROPERTIES 19
FOUNDRY "FreeType"
FAMILY_NAME "Manrope Light"
WEIGHT_NAME "Medium"
SLANT "R"
SETWIDTH_NAME "Normal"
ADD_STYLE_NAME ""
PIXEL_SIZE 39
POINT_SIZE 280
RESOLUTION_X 100
RESOLUTION_Y 100
SPACING "P"
AVERAGE_WIDTH 170
CHARSET_REGISTRY "ISO10646"
CHARSET_ENCODING "1"
FONT_ASCENT 41
FONT_DESCENT 11
COPYRIGHT "Copyright 2019-2021 The Manrope Project Authors (https://github.com/sharanda/manrope)"
_OTF_FONTFILE "manrope-light.otf"
_OTF_PSNAME "Manrope-Light"
ENDPROPERTIES
CHARS 191
STARTCHAR 0020
ENCODING 32
SWIDTH 205 0
DWIDTH 8 0
BBX 0 0 0 0
BITMAP
ENDCHAR
STARTCHAR 0021
ENCODING 33
SWIDTH 308 0
DWIDTH 12 0
BBX 2 28 5 0
BITMAP
C0
C0
C0
C0
C0
C0
C0
C0
C0
C0
C0
C0
C0
C0
C0
C0
C0
C0
C0
C0
C0
00
00
00
00
C0
C0
C0
ENDCHAR
STARTCHAR 0022
ENCODING 34
SWIDTH 360 0
DWIDTH 14 0
BBX 8 7 2 21
BITMAP
E3
E3
E3
E3
E3
E3
E3
ENDCHAR
STARTCHAR 0023
ENCODING 35
SWIDTH 925 0
DWIDTH 36 0
BBX 30 28 3 0
BITMAP
00060300
000E0300
000C0700
000C0600
001C0600
00180600
00180E00
00180C00
3FFFFFFC
3FFFFFFC
00301800
00301800
00701800
00603800
00603000
00603000
00E03000
FFFFFFF0
FFFFFFE0
01C06000
01806000
0180C000
0180C000
0380C000
0301C000
03018000
03018000
07018000
ENDCHAR
STARTCHAR 0024
ENCODING 36
SWIDTH 565 0
DWIDTH 22 0
BBX 20 35 1 -3
BITMAP
006000
006000
006000
006000
01FC00
0FFF00
1F0F80
3C01C0
3000E0
700060
700070
700030
700000
300000
3C0000
1F0000
0FE000
01FC00
003F80
0003C0
0000E0
000070
000030
000030
E00030
E00030
600070
700060
3C00E0
1F07C0
0FFF80
01FC00
006000
006000
006000
ENDCHAR
STARTCHAR 0025
ENCODING 37
SWIDTH 900 0
DWIDTH 35 0
BBX 31 28 2 0
BITMAP
07C00018
1FF0003C
38780078
701C00F0
600C01E0
E00C03C0
C00C0780
E00C0F00
600C1E00
701C3C00
38787800
1FF0F000
0FC1E000
0003C000
00078000
000F07E0
001E1FF0
003C3C38
0078701C
00F0600C
01E0600E
03C06006
0780600E
0F00600C
1E00301C
3C003C38
78001FF0
100007C0
ENDCHAR
STARTCHAR 0026
ENCODING 38
SWIDTH 642 0
DWIDTH 25 0
BBX 23 28 2 0
BITMAP
03F800
0FFE00
1F0F00
180380
380180
300000
300000
300000
300000
380000
380000
1C0000
0E0000
0F0000
3F8000
78E060
607060
E03860
C01C60
C00E60
C00760
C001E0
E000E0
6000E0
7801F0
3E0F9C
1FFF0E
03FC04
ENDCHAR
STARTCHAR 0027
ENCODING 39
SWIDTH 205 0
DWIDTH 8 0
BBX 3 7 2 21
BITMAP
E0
E0
E0
E0
E0
E0
E0
ENDCHAR
STARTCHAR 0028
ENCODING 40
SWIDTH 411 0
DWIDTH 16 0
BBX 9 39 5 -7
BITMAP
0180
0380
0300
0700
0E00
0C00
1C00
1800
3800
3000
3000
7000
6000
6000
6000
6000
6000
E000
E000
E000
E000
E000
6000
6000
6000
6000
7000
3000
3000
3800
1800
1800
0C00
0E00
0600
0700
0380
0180
0100
ENDCHAR
STARTCHAR 0029
ENCODING 41
SWIDTH 411 0
DWIDTH 16 0
BBX 9 39 2 -7
BITMAP
C000
E000
7000
3000
3800
1800
1C00
0C00
0E00
0600
0600
0700
0300
0300
0300
0300
0380
0180
0180
0180
0180
0180
0380
0300
0300
0300
0300
0700
0600
0600
0E00
0C00
1C00
1800
3800
7000
6000
E000
4000
ENDCHAR
STARTCHAR 002A
ENCODING 42
SWIDTH 437 0
DWIDTH 17 0
BBX 13 12 1 15
BITMAP
0300
0300
0300
0300
F338
FFF8
1FC0
0780
0F80
1CC0
18E0
3060
ENDCHAR
STARTCHAR 002B
ENCODING 43
SWIDTH 591 0
DWIDTH 23 0
BBX 18 18 2 5
BITMAP
00C000
00C000
00C000
00C000
00C000
00C000
00C000
00C000
FFFFC0
FFFFC0
00C000
00C000
00C000
00C000
00C000
00C000
00C000
00C000
ENDCHAR
STARTCHAR 002C
ENCODING 44
SWIDTH 257 0
DWIDTH 10 0
BBX 3 8 2 -4
BITMAP
E0
E0
E0
E0
20
20
60
C0
ENDCHAR
STARTCHAR 002D
ENCODING 45
SWIDTH 411 0
DWIDTH 16 0
BBX 12 2 2 11
BITMAP
FFF0
FFF0
ENDCHAR
STARTCHAR 002E
ENCODING 46
SWIDTH 231 0
DWIDTH 9 0
BBX 3 3 3 0
BITMAP
E0
E0
E0
ENDCHAR
STARTCHAR 002F
ENCODING 47
SWIDTH 360 0
DWIDTH 14 0
BBX 10 28 2 0
BITMAP
00C0
01C0
0180
0180
0180
0380
0300
0300
0300
0700
0600
0600
0E00
0E00
0C00
0C00
1C00
1800
1800
1800
3800
3000
3000
3000
7000
6000
6000
E000
ENDCHAR
STARTCHAR 0030
ENCODING 48
SWIDTH 591 0
DWIDTH 23 0
BBX 17 28 3 0
BITMAP
07E000
1FFC00
3E3E00
780700
600300
E00380
C00180
C00180
C00180
C00180
C00180
C00180
C00180
C00180
C00180
C00180
C00180
C00180
C00180
C00180
C00180
C00180
E00380
600300
780700
3E3E00
1FFC00
07F000
ENDCHAR
STARTCHAR 0031
ENCODING 49
SWIDTH 385 0
DWIDTH 15 0
BBX 8 28 2 0
BITMAP
07
1F
7F
F3
C3
83
03
03
03
03
03
03
03
03
03
03
03
03
03
03
03
03
03
03
03
03
03
03
ENDCHAR
STARTCHAR 0032
ENCODING 50
SWIDTH 565 0
DWIDTH 22 0
BBX 18 28 2 0
BITMAP
03F000
0FFC00
1E1E00
380700
700380
600180
E001C0
E001C0
C000C0
0000C0
0001C0
000180
000180
000380
000700
000E00
001C00
007800
00F000
01C000
038000
070000
0E0000
1C0000
380000
F00000
FFFFC0
FFFFC0
ENDCHAR
STARTCHAR 0033
ENCODING 51
SWIDTH 540 0
DWIDTH 21 0
BBX 17 28 2 0
BITMAP
7FFF80
7FFF80
000700
000E00
001C00
003800
007000
01E000
038000
070000
0FE000
0FF800
0C3C00
000E00
000700
000300
000380
000380
000380
000380
000380
400300
C00300
E00700
700E00
3C3C00
1FF800
07E000
ENDCHAR
STARTCHAR 0034
ENCODING 52
SWIDTH 591 0
DWIDTH 23 0
BBX 19 28 2 0
BITMAP
007000
006000
00E000
00C000
01C000
018000
038000
030000
070000
060000
0E0000
0C0000
0C0700
1C0700
180700
380700
300700
700700
600700
E00700
FFFFE0
FFFFE0
000700
000700
000700
000700
000700
000700
ENDCHAR
STARTCHAR 0035
ENCODING 53
SWIDTH 565 0
DWIDTH 22 0
BBX 18 28 2 0
BITMAP
3FFF00
7FFF00
700000
700000
600000
600000
600000
600000
600000
600000
63F000
6FFC00
7C0F00
780780
600380
0001C0
0000C0
0000C0
0000C0
0000C0
0000C0
C000C0
E001C0
700380
380700
1E1E00
0FFC00
03F000
ENDCHAR
STARTCHAR 0036
ENCODING 54
SWIDTH 617 0
DWIDTH 24 0
BBX 18 28 3 0
BITMAP
03F000
0FFC00
1E1F00
380780
700180
E00000
C00000
C00000
C00000
C00000
C3F000
CFFC00
DE1F00
F80780
F00180
E001C0
C000C0
C000C0
C000C0
C000C0
C000C0
C000C0
E001C0
700380
380780
1E1F00
0FFC00
03F000
ENDCHAR
STARTCHAR 0037
ENCODING 55
SWIDTH 488 0
DWIDTH 19 0
BBX 15 28 2 0
BITMAP
FFFE
FFFE
0006
000E
000C
001C
0018
0018
0038
0030
0070
0060
0060
00E0
00C0
01C0
0180
0180
0380
0300
0700
0600
0E00
0C00
0C00
1C00
1800
3800
ENDCHAR
STARTCHAR 0038
ENCODING 56
SWIDTH 565 0
DWIDTH 22 0
BBX 18 28 2 0
BITMAP
03F000
0FFC00
1E1E00
380700
700380
700380
600180
600180
700180
700380
380700
3C0F00
0FFE00
0FFC00
3E1F00
380700
700380
600180
E001C0
E001C0
E001C0
E001C0
600180
700380
380700
3E1F00
0FFC00
03F000
ENDCHAR
STARTCHAR 0039
ENCODING 57
SWIDTH 617 0
DWIDTH 24 0
BBX 18 28 3 0
BITMAP
03F000
0FFC00
3E1E00
380700
700380
E001C0
C000C0
C000C0
C000C0
C000C0
C000C0
C000C0
E001C0
7003C0
7807C0
3E1EC0
0FFCC0
03F0C0
0000C0
0000C0
0000C0
0000C0
0001C0
600380
780700
3E1F00
0FFC00
03F000
ENDCHAR
STARTCHAR 003A
ENCODING 58
SWIDTH 282 0
DWIDTH 11 0
BBX 3 15 4 3
BITMAP
E0
E0
E0
00
00
00
00
00
00
00
00
00
E0
E0
E0
ENDCHAR
STARTCHAR 003B
ENCODING 59
SWIDTH 282 0
DWIDTH 11 0
BBX 3 25 4 -4
BITMAP
E0
E0
E0
00
00
00
00
00
00
00
00
00
00
00
00
00
00
E0
E0
E0
E0
20
20
60
C0
ENDCHAR
STARTCHAR 003C
ENCODING 60
SWIDTH 617 0
DWIDTH 24 0
BBX 10 18 6 3
BITMAP
0080
01C0
0380
0700
0E00
1C00
3800
7000
E000
E000
7000
3800
1C00
0E00
0700
0380
01C0
0080
ENDCHAR
STARTCHAR 003D
ENCODING 61
SWIDTH 745 0
DWIDTH 29 0
BBX 19 8 5 10
BITMAP
FFFFE0
FFFFE0
000000
000000
000000
000000
FFFFE0
FFFFE0
ENDCHAR
STARTCHAR 003E
ENCODING 62
SWIDTH 617 0
DWIDTH 24 0
BBX 10 18 8 3
BITMAP
4000
E000
7000
3800
1C00
0E00
0700
0380
01C0
01C0
0380
0700
0E00
1C00
3800
7000
E000
C000
ENDCHAR
STARTCHAR 003F
ENCODING 63
SWIDTH 514 0
DWIDTH 20 0
BBX 16 28 2 0
BITMAP
07E0
1FF8
3C3C
700E
E007
C007
C003
0003
0003
0007
0006
000E
003C
0078
00E0
01C0
0180
0380
0380
0380
0000
0000
0000
0000
0000
0380
0380
0380
ENDCHAR
STARTCHAR 0040
ENCODING 64
SWIDTH 900 0
DWIDTH 35 0
BBX 29 29 3 -4
BITMAP
003FE000
00FFFC00
03E01F00
07000780
0E0001C0
1C0000E0
38000060
30000070
70000030
600F8030
603FF038
E070F018
C0607018
C0603018
C0603018
C0603038
C0607030
E0707030
603FF870
601F9FE0
70000F80
30000000
38000000
1C000000
0E000000
07800400
03E03C00
00FFF800
001FE000
ENDCHAR
STARTCHAR 0041
ENCODING 65
SWIDTH 617 0
DWIDTH 24 0
BBX 22 28 1 0
BITMAP
003800
007800
007800
00FC00
00CC00
00CC00
01CE00
018600
018600
038700
030300
030380
070380
060180
0601C0
0E00C0
0C00C0
1C00E0
1C0060
1FFFE0
3FFFF0
300030
300030
700038
600018
60001C
E0001C
C0000C
ENDCHAR
STARTCHAR 0042
ENCODING 66
SWIDTH 617 0
DWIDTH 24 0
BBX 19 28 3 0
BITMAP
FFF800
FFFE00
C00F00
C00380
C001C0
C000C0
C000C0
C000C0
C001C0
C001C0
C00380
C00700
FFFE00
FFFF00
C00780
C001C0
C000E0
C000E0
C00060
C00060
C00060
C00060
C00060
C000E0
C001C0
C007C0
FFFF00
FFFE00
ENDCHAR
STARTCHAR 0043
ENCODING 67
SWIDTH 720 0
DWIDTH 28 0
BBX 25 28 1 0
BITMAP
007F8000
03FFE000
07C0F800
0F003C00
1C000E00
38000600
30000700
70000300
60000380
60000000
E0000000
E0000000
E0000000
E0000000
E0000000
E0000000
E0000000
E0000000
60000000
60000380
70000300
30000700
38000600
1C000E00
0E003C00
07C0F800
03FFE000
007F8000
ENDCHAR
STARTCHAR 0044
ENCODING 68
SWIDTH 668 0
DWIDTH 26 0
BBX 21 28 3 0
BITMAP
FFF800
FFFE00
C00F80
C003C0
C000E0
C000E0
C00070
C00030
C00030
C00038
C00038
C00018
C00018
C00018
C00018
C00018
C00018
C00038
C00038
C00030
C00030
C00070
C000E0
C000E0
C003C0
C00F80
FFFF00
FFF800
ENDCHAR
STARTCHAR 0045
ENCODING 69
SWIDTH 565 0
DWIDTH 22 0
BBX 17 28 3 0
BITMAP
FFFF80
FFFF80
C00000
C00000
C00000
C00000
C00000
C00000
C00000
C00000
C00000
C00000
C00000
FFFE00
FFFE00
C00000
C00000
C00000
C00000
C00000
C00000
C00000
C00000
C00000
C00000
C00000
FFFF80
FFFF80
ENDCHAR
STARTCHAR 0046
ENCODING 70
SWIDTH 488 0
DWIDTH 19 0
BBX 16 28 3 0
BITMAP
FFFF
FFFF
C000
C000
C000
C000
C000
C000
C000
C000
C000
C000
C000
FFF8
FFF8
C000
C000
C000
C000
C000
C000
C000
C000
C000
C000
C000
C000
C000
ENDCHAR
STARTCHAR 0047
ENCODING 71
SWIDTH 694 0
DWIDTH 27 0
BBX 25 28 1 0
BITMAP
007F8000
03FFE000
07C1F800
0F003C00
1C001C00
38000E00
30000600
70000400
60000000
60000000
E0000000
E0000000
E0000000
E0000000
E000FF80
E000FF80
E0000380
E0000380
60000380
60000300
70000300
30000700
38000600
1C000E00
0E003C00
07C0F800
03FFE000
007F8000
ENDCHAR
STARTCHAR 0048
ENCODING 72
SWIDTH 668 0
DWIDTH 26 0
BBX 20 28 3 0
BITMAP
C00030
C00030
C00030
C00030
C00030
C00030
C00030
C00030
C00030
C00030
C00030
C00030
C00030
FFFFF0
FFFFF0
C00030
C00030
C00030
C00030
C00030
C00030
C00030
C00030
C00030
C00030
C00030
C00030
C00030
ENDCHAR
STARTCHAR 0049
ENCODING 73
SWIDTH 205 0
DWIDTH 8 0
BBX 2 28 3 0
BITMAP
C0
C0
C0
C0
C0
C0
C0
C0
C0
C0
C0
C0
C0
C0
C0
C0
C0
C0
C0
C0
C0
C0
C0
C0
C0
C0
C0
C0
ENDCHAR
STARTCHAR 004A
ENCODING 74
SWIDTH 462 0
DWIDTH 18 0
BBX 14 28 0 0
BITMAP
000C
000C
000C
000C
000C
000C
000C
000C
000C
000C
000C
000C
000C
000C
000C
000C
000C
000C
000C
000C
000C
000C
C00C
E01C
701C
3878
1FF0
0FC0
ENDCHAR
STARTCHAR 004B
ENCODING 75
SWIDTH 565 0
DWIDTH 22 0
BBX 19 28 3 0
BITMAP
C001C0
C00380
C00700
C00E00
C01C00
C03800
C07000
C0E000
C1C000
C38000
C70000
CE0000
DC0000
F80000
DC0000
CE0000
C70000
C38000
C1C000
C0E000
C07000
C03800
C01C00
C00E00
C00700
C00380
C001C0
C000E0
ENDCHAR
STARTCHAR 004C
ENCODING 76
SWIDTH 514 0
DWIDTH 20 0
BBX 16 28 3 0
BITMAP
C000
C000
C000
C000
C000
C000
C000
C000
C000
C000
C000
C000
C000
C000
C000
C000
C000
C000
C000
C000
C000
C000
C000
C000
C000
C000
FFFF
FFFF
ENDCHAR
STARTCHAR 004D
ENCODING 77
SWIDTH 848 0
DWIDTH 33 0
BBX 27 28 3 0
BITMAP
C00000E0
E00000E0
E00001E0
E00001E0
F00001E0
F0000360
F8000360
D8000760
DC000660
CC000E60
CE000C60
C6001C60
C7001860
C3003860
C3803060
C1803060
C1806060
C0C06060
C0C0E060
C0E0C060
C061C060
C0718060
C0338060
C03B0060
C01F0060
C01E0060
C00E0060
C00C0060
ENDCHAR
STARTCHAR 004E
ENCODING 78
SWIDTH 668 0
DWIDTH 26 0
BBX 20 28 3 0
BITMAP
C00030
E00030
F00030
F00030
F80030
DC0030
CC0030
CE0030
C70030
C30030
C38030
C1C030
C0C030
C0E030
C07030
C03030
C03830
C01C30
C00C30
C00E30
C00730
C003B0
C003B0
C001F0
C000F0
C000F0
C00070
C00030
ENDCHAR
STARTCHAR 004F
ENCODING 79
SWIDTH 720 0
DWIDTH 28 0
BBX 26 28 1 0
BITMAP
007F8000
03FFE000
07C0F800
0F003C00
1C000E00
38000600
30000700
70000300
60000380
60000180
E0000180
E0000180
E00001C0
E00001C0
E00001C0
E00001C0
E0000180
E0000180
60000180
60000380
70000300
30000700
38000600
1C000E00
0E003C00
07C0F800
03FFE000
007F8000
ENDCHAR
STARTCHAR 0050
ENCODING 80
SWIDTH 591 0
DWIDTH 23 0
BBX 19 28 3 0
BITMAP
FFFC00
FFFE00
C00F80
C00380
C001C0
C000C0
C000E0
C000E0
C00060
C000E0
C000E0
C000C0
C001C0
C00380
C00F80
FFFF00
FFFC00
C00000
C00000
C00000
C00000
C00000
C00000
C00000
C00000
C00000
C00000
C00000
ENDCHAR
STARTCHAR 0051
ENCODING 81
SWIDTH 720 0
DWIDTH 28 0
BBX 26 28 1 0
BITMAP
007F8000
03FFE000
07C0F800
0F003C00
1C000E00
38000600
30000700
70000300
60000380
60000180
E0000180
E0000180
E00001C0
E00001C0
E00001C0
E00001C0
E0000180
E0000180
60000180
60000380
70006300
30007700
38003E00
1C001E00
0E003E00
07C0FF00
03FFE380
007F8100
ENDCHAR
STARTCHAR 0052
ENCODING 82
SWIDTH 617 0
DWIDTH 24 0
BBX 19 28 3 0
BITMAP
FFFC00
FFFE00
C00F80
C00380
C001C0
C000C0
C000E0
C000E0
C00060
C000E0
C000E0
C000C0
C001C0
C00380
C00F80
FFFF00
FFFC00
C00E00
C00E00
C00600
C00700
C00300
C00380
C00180
C001C0
C000C0
C000E0
C00060
ENDCHAR
STARTCHAR 0053
ENCODING 83
SWIDTH 591 0
DWIDTH 23 0
BBX 21 28 1 0
BITMAP
01FC00
07FF80
1F87C0
3C00E0
380070
300030
700038
700018
700000
380000
3C0000
1F0000
0FF000
01FE00
001FC0
0003E0
000070
000038
000018
000018
E00018
E00018
700038
780030
3C00F0
1F83E0
07FFC0
01FE00
ENDCHAR
STARTCHAR 0054
ENCODING 84
SWIDTH 591 0
DWIDTH 23 0
BBX 23 28 0 0
BITMAP
FFFFFE
FFFFFE
003800
003800
003800
003800
003800
003800
003800
003800
003800
003800
003800
003800
003800
003800
003800
003800
003800
003800
003800
003800
003800
003800
003800
003800
003800
003800
ENDCHAR
STARTCHAR 0055
ENCODING 85
SWIDTH 694 0
DWIDTH 27 0
BBX 21 28 3 0
BITMAP
C00018
C00018
C00018
C00018
C00018
C00018
C00018
C00018
C00018
C00018
C00018
C00018
C00018
C00018
C00018
C00018
C00018
C00018
C00018
C00018
E00038
E00038
700070
700070
3C01E0
1F07C0
07FF80
01FC00
ENDCHAR
STARTCHAR 0056
ENCODING 86
SWIDTH 591 0
DWIDTH 23 0
BBX 23 28 0 0
BITMAP
E0000E
60000C
60000C
70001C
300018
380038
380030
180030
1C0070
0C0060
0C0060
0E00E0
0600C0
0600C0
0701C0
030180
030180
038380
018300
018300
01C700
00C600
00EE00
00EC00
006C00
007C00
003800
003800
ENDCHAR
STARTCHAR 0057
ENCODING 87
SWIDTH 925 0
DWIDTH 36 0
BBX 34 28 1 0
BITMAP
C000C000C0
C001E001C0
E001E00180
6001E00180
6003E00380
7003F00380
3003300300
3003300300
3007380700
3806380600
1806180600
180E180600
1C0C1C0E00
0C0C0C0C00
0C0C0C0C00
0C1C0E1C00
0E180E1800
0618061800
0638061800
0730073800
0330033000
0330033000
0370037000
03E003E000
01E001E000
01E001E000
01C001E000
00C000C000
ENDCHAR
STARTCHAR 0058
ENCODING 88
SWIDTH 591 0
DWIDTH 23 0
BBX 21 28 1 0
BITMAP
E00038
600030
700070
3800E0
1800C0
1C01C0
0E0380
060700
070600
038E00
019C00
00D800
00F800
007000
007000
00F800
01DC00
018C00
038E00
070700
060300
0E0380
1C01C0
3800C0
3000E0
700070
E00038
C00038
ENDCHAR
STARTCHAR 0059
ENCODING 89
SWIDTH 540 0
DWIDTH 21 0
BBX 21 28 0 0
BITMAP
E00038
600070
700060
3800E0
1800C0
1C01C0
0C0180
0E0380
070700
070600
038E00
018C00
01DC00
00D800
00F800
007000
007000
007000
007000
007000
007000
007000
007000
007000
007000
007000
007000
007000
ENDCHAR
STARTCHAR 005A
ENCODING 90
SWIDTH 591 0
DWIDTH 23 0
BBX 19 28 2 0
BITMAP
FFFFE0
FFFFE0
0000C0
0001C0
000380
000300
000700
000E00
000C00
001C00
001800
003800
007000
006000
00E000
01C000
018000
038000
070000
070000
0E0000
0C0000
1C0000
380000
300000
700000
FFFFE0
FFFFE0
ENDCHAR
STARTCHAR 005B
ENCODING 91
SWIDTH 411 0
DWIDTH 16 0
BBX 7 42 5 -8
BITMAP
FE
FE
E0
E0
E0
E0
E0
E0
E0
E0
E0
E0
E0
E0
E0
E0
E0
E0
E0
E0
E0
E0
E0
E0
E0
E0
E0
E0
E0
E0
E0
E0
E0
E0
E0
E0
E0
E0
E0
E0
FE
FE
ENDCHAR
STARTCHAR 005C
ENCODING 92
SWIDTH 360 0
DWIDTH 14 0
BBX 10 28 2 0
BITMAP
E000
6000
6000
7000
3000
3000
3000
3800
1800
1800
1800
1C00
0C00
0C00
0E00
0E00
0600
0600
0700
0300
0300
0300
0380
0180
0180
0180
01C0
00C0
ENDCHAR
STARTCHAR 005D
ENCODING 93
SWIDTH 411 0
DWIDTH 16 0
BBX 7 42 3 -8
BITMAP
FE
FE
06
06
06
06
06
06
06
06
06
06
06
06
06
06
06
06
06
06
06
06
06
06
06
06
06
06
06
06
06
06
06
06
06
06
06
06
06
06
FE
FE
ENDCHAR
STARTCHAR 005E
ENCODING 94
SWIDTH 668 0
DWIDTH 26 0
BBX 18 10 4 18
BITMAP
00C000
01E000
03F000
073800
0E1C00
1C0E00
380700
700380
E001C0
400080
ENDCHAR
STARTCHAR 005F
ENCODING 95
SWIDTH 668 0
DWIDTH 26 0
BBX 26 2 0 -4
BITMAP
FFFFFFC0
FFFFFFC0
ENDCHAR
STARTCHAR 0060
ENCODING 96
SWIDTH 462 0
DWIDTH 18 0
BBX 4 6 7 31
BITMAP
C0
C0
60
60
70
30
ENDCHAR
STARTCHAR 0061
ENCODING 97
SWIDTH 540 0
DWIDTH 21 0
BBX 17 21 2 0
BITMAP
07F000
1FFC00
3C1E00
700700
600380
E00380
000180
000180
003F80
07FF80
3FC180
780180
E00180
C00380
C00380
C00380
C00780
E00F80
703D80
3FF180
0FC000
ENDCHAR
STARTCHAR 0062
ENCODING 98
SWIDTH 591 0
DWIDTH 23 0
BBX 18 28 3 0
BITMAP
C00000
C00000
C00000
C00000
C00000
C00000
C00000
C3F000
CFFC00
DE1E00
F80700
F00380
E00180
C001C0
C001C0
C000C0
C000C0
C000C0
C000C0
C000C0
C001C0
C001C0
E00180
F00380
F80700
DC1E00
CFFC00
C3F000
ENDCHAR
STARTCHAR 0063
ENCODING 99
SWIDTH 540 0
DWIDTH 21 0
BBX 18 21 2 0
BITMAP
03F800
0FFE00
3E0F00
380380
7001C0
E00180
E00000
C00000
C00000
C00000
C00000
C00000
C00000
C00000
E00000
E00180
7001C0
380380
1E0F00
0FFE00
03F800
ENDCHAR
STARTCHAR 0064
ENCODING 100
SWIDTH 591 0
DWIDTH 23 0
BBX 18 28 2 0
BITMAP
0000C0
0000C0
0000C0
0000C0
0000C0
0000C0
0000C0
07F0C0
0FFCC0
3E1EC0
3807C0
7003C0
E001C0
E001C0
C000C0
C000C0
C000C0
C000C0
C000C0
C000C0
C000C0
E001C0
E001C0
7003C0
3807C0
3E1EC0
0FFCC0
03F0C0
ENDCHAR
STARTCHAR 0065
ENCODING 101
SWIDTH 591 0
DWIDTH 23 0
BBX 19 21 2 0
BITMAP
03F800
0FFE00
3E0F00
380380
7001C0
E000C0
E000C0
C000E0
C000E0
FFFFE0
FFFFE0
C00000
C00000
C00000
E00000
E000C0
7001C0
380380
1E0F00
0FFE00
03F800
ENDCHAR
STARTCHAR 0066
ENCODING 102
SWIDTH 360 0
DWIDTH 14 0
BBX 12 28 1 0
BITMAP
03F0
07F0
0E00
0C00
0C00
0C00
0C00
FFF0
FFF0
0C00
0C00
0C00
0C00
0C00
0C00
0C00
0C00
0C00
0C00
0C00
0C00
0C00
0C00
0C00
0C00
0C00
0C00
0C00
ENDCHAR
STARTCHAR 0067
ENCODING 103
SWIDTH 591 0
DWIDTH 23 0
BBX 18 30 2 -9
BITMAP
07F0C0
0FFCC0
3E1EC0
3807C0
7003C0
E001C0
E001C0
C000C0
C000C0
C000C0
C000C0
C000C0
C000C0
C000C0
E001C0
E001C0
7003C0
3807C0
3E1EC0
0FFCC0
03F0C0
0000C0
0001C0
0001C0
000180
600380
700380
3C0F00
1FFE00
07F800
ENDCHAR
STARTCHAR 0068
ENCODING 104
SWIDTH 591 0
DWIDTH 23 0
BBX 17 28 3 0
BITMAP
C00000
C00000
C00000
C00000
C00000
C00000
C00000
C3F000
CFFC00
DC1E00
F00700
E00300
E00380
C00180
C00180
C00180
C00180
C00180
C00180
C00180
C00180
C00180
C00180
C00180
C00180
C00180
C00180
C00180
ENDCHAR
STARTCHAR 0069
ENCODING 105
SWIDTH 205 0
DWIDTH 8 0
BBX 2 28 3 0
BITMAP
C0
C0
C0
00
00
00
00
C0
C0
C0
C0
C0
C0
C0
C0
C0
C0
C0
C0
C0
C0
C0
C0
C0
C0
C0
C0
C0
ENDCHAR
STARTCHAR 006A
ENCODING 106
SWIDTH 231 0
DWIDTH 9 0
BBX 6 37 0 -9
BITMAP
0C
0C
0C
00
00
00
00
0C
0C
0C
0C
0C
0C
0C
0C
0C
0C
0C
0C
0C
0C
0C
0C
0C
0C
0C
0C
0C
0C
0C
0C
0C
0C
0C
1C
F8
F0
ENDCHAR
STARTCHAR 006B
ENCODING 107
SWIDTH 488 0
DWIDTH 19 0
BBX 16 28 3 0
BITMAP
C000
C000
C000
C000
C000
C000
C000
C01E
C03C
C078
C0F0
C1E0
C3C0
C380
C700
CE00
DC00
F800
DC00
CE00
C700
C380
C1C0
C0E0
C078
C03C
C01E
C00F
ENDCHAR
STARTCHAR 006C
ENCODING 108
SWIDTH 205 0
DWIDTH 8 0
BBX 2 28 3 0
BITMAP
C0
C0
C0
C0
C0
C0
C0
C0
C0
C0
C0
C0
C0
C0
C0
C0
C0
C0
C0
C0
C0
C0
C0
C0
C0
C0
C0
C0
ENDCHAR
STARTCHAR 006D
ENCODING 109
SWIDTH 822 0
DWIDTH 32 0
BBX 27 21 3 0
BITMAP
C7C07E00
DFF1FF80
F87B83C0
E01F01C0
E00E00E0
C00E00E0
C00E0060
C00C0060
C00C0060
C00C0060
C00C0060
C00C0060
C00C0060
C00C0060
C00C0060
C00C0060
C00C0060
C00C0060
C00C0060
C00C0060
C00C0060
ENDCHAR
STARTCHAR 006E
ENCODING 110
SWIDTH 591 0
DWIDTH 23 0
BBX 17 21 3 0
BITMAP
C3F000
CFFC00
DC1E00
F00700
E00300
E00380
C00180
C00180
C00180
C00180
C00180
C00180
C00180
C00180
C00180
C00180
C00180
C00180
C00180
C00180
C00180
ENDCHAR
STARTCHAR 006F
ENCODING 111
SWIDTH 591 0
DWIDTH 23 0
BBX 19 21 2 0
BITMAP
03F800
0FFE00
1E0F00
380380
7001C0
E000C0
E000E0
C000E0
C00060
C00060
C00060
C00060
C00060
C000E0
E000E0
E000C0
7001C0
380380
1E0F00
0FFE00
03F800
ENDCHAR
STARTCHAR 0070
ENCODING 112
SWIDTH 591 0
DWIDTH 23 0
BBX 18 30 3 -9
BITMAP
C3F000
CFFC00
DE1E00
F80700
F00380
E00180
C001C0
C001C0
C000C0
C000C0
C000C0
C000C0
C000C0
C001C0
C001C0
E00180
F00380
F80700
DC1E00
CFFC00
C3F000
C00000
C00000
C00000
C00000
C00000
C00000
C00000
C00000
C00000
ENDCHAR
STARTCHAR 0071
ENCODING 113
SWIDTH 591 0
DWIDTH 23 0
BBX 18 30 2 -9
BITMAP
07F0C0
0FFCC0
3E1EC0
3807C0
7003C0
E001C0
E001C0
C000C0
C000C0
C000C0
C000C0
C000C0
C000C0
C000C0
E001C0
E001C0
7003C0
3807C0
3E1EC0
0FFCC0
03F0C0
0000C0
0000C0
0000C0
0000C0
0000C0
0000C0
0000C0
0000C0
0000C0
ENDCHAR
STARTCHAR 0072
ENCODING 114
SWIDTH 360 0
DWIDTH 14 0
BBX 10 21 3 0
BITMAP
C7C0
DFC0
FC00
F000
E000
E000
C000
C000
C000
C000
C000
C000
C000
C000
C000
C000
C000
C000
C000
C000
C000
ENDCHAR
STARTCHAR 0073
ENCODING 115
SWIDTH 514 0
DWIDTH 20 0
BBX 17 21 2 0
BITMAP
07E000
3FFC00
781E00
600700
E00300
C00380
E00000
700000
7C0000
1FC000
03F800
003E00
000F00
000300
000380
C00380
E00300
F00700
7C1E00
3FFC00
07F000
ENDCHAR
STARTCHAR 0074
ENCODING 116
SWIDTH 385 0
DWIDTH 15 0
BBX 14 27 0 0
BITMAP
0600
0600
0600
0600
0600
0600
FFFC
FFFC
0600
0600
0600
0600
0600
0600
0600
0600
0600
0600
0600
0600
0600
0600
0700
0700
0380
01FC
00FC
ENDCHAR
STARTCHAR 0075
ENCODING 117
SWIDTH 591 0
DWIDTH 23 0
BBX 18 21 2 0
BITMAP
E000C0
E000C0
E000C0
E000C0
E000C0
E000C0
E000C0
E000C0
E000C0
E000C0
E000C0
E000C0
E000C0
E001C0
6001C0
6001C0
7003C0
3807C0
1E1EC0
0FFCC0
03F0C0
ENDCHAR
STARTCHAR 0076
ENCODING 118
SWIDTH 488 0
DWIDTH 19 0
BBX 17 21 1 0
BITMAP
C00180
E00380
600300
600300
700700
300600
300600
380E00
180C00
1C0C00
0C1C00
0C1800
0E1800
063000
063000
077000
036000
036000
03E000
01C000
01C000
ENDCHAR
STARTCHAR 0077
ENCODING 119
SWIDTH 745 0
DWIDTH 29 0
BBX 27 21 1 0
BITMAP
C00E0060
E00E0060
600F0060
600F00E0
601B00C0
701B00C0
301981C0
30318180
38318180
1830C380
1870C300
1C60C300
0C60E700
0CE06600
0CC06600
0EC07600
06C03E00
07803C00
07803C00
03801C00
03001800
ENDCHAR
STARTCHAR 0078
ENCODING 120
SWIDTH 514 0
DWIDTH 20 0
BBX 18 21 1 0
BITMAP
E001C0
600180
300380
380700
1C0E00
0E0C00
061800
073800
03F000
01E000
00C000
01E000
03F000
073800
0E1C00
0C0C00
1C0E00
380700
700380
6001C0
E000C0
ENDCHAR
STARTCHAR 0079
ENCODING 121
SWIDTH 514 0
DWIDTH 20 0
BBX 18 30 1 -9
BITMAP
C000C0
E001C0
600180
700180
300380
300300
380300
180700
1C0600
0C0E00
0C0C00
0E0C00
061C00
071800
031800
033800
03B000
01B000
01E000
00E000
00E000
00C000
00C000
01C000
018000
018000
038000
030000
070000
060000
ENDCHAR
STARTCHAR 007A
ENCODING 122
SWIDTH 540 0
DWIDTH 21 0
BBX 18 21 1 0
BITMAP
7FFFC0
7FFF80
000380
000700
000E00
001C00
001800
003800
007000
00E000
00C000
018000
038000
070000
0E0000
0C0000
180000
380000
700000
FFFF80
FFFF80
ENDCHAR
STARTCHAR 007B
ENCODING 123
SWIDTH 411 0
DWIDTH 16 0
BBX 8 42 6 -8
BITMAP
0F
3F
38
30
30
30
30
30
30
30
30
30
30
30
30
30
30
30
70
E0
C0
C0
E0
70
30
30
30
30
30
30
30
30
30
30
30
30
30
30
30
38
3F
0F
ENDCHAR
STARTCHAR 007C
ENCODING 124
SWIDTH 231 0
DWIDTH 9 0
BBX 3 28 3 0
BITMAP
E0
E0
E0
E0
E0
E0
E0
E0
E0
E0
E0
E0
E0
E0
E0
E0
E0
E0
E0
E0
E0
E0
E0
E0
E0
E0
E0
E0
ENDCHAR
STARTCHAR 007D
ENCODING 125
SWIDTH 411 0
DWIDTH 16 0
BBX 8 42 2 -8
BITMAP
F0
F8
1C
0C
0C
0C
0C
0C
0C
0C
0C
0C
0C
0C
0C
0C
0C
0C
0E
07
03
03
07
0E
0C
0C
0C
0C
0C
0C
0C
0C
0C
0C
0C
0C
0C
0C
0C
1C
F8
F0
ENDCHAR
STARTCHAR 007E
ENCODING 126
SWIDTH 642 0
DWIDTH 25 0
BBX 15 7 5 9
BITMAP
1800
7E06
FF06
E7CE
C1FE
C0FC
0030
ENDCHAR
STARTCHAR 00A0
ENCODING 160
SWIDTH 205 0
DWIDTH 8 0
BBX 0 0 0 0
BITMAP
ENDCHAR
STARTCHAR 00A1
ENCODING 161
SWIDTH 308 0
DWIDTH 12 0
BBX 2 28 5 -7
BITMAP
C0
C0
C0
00
00
00
00
C0
C0
C0
C0
C0
C0
C0
C0
C0
C0
C0
C0
C0
C0
C0
C0
C0
C0
C0
C0
C0
ENDCHAR
STARTCHAR 00A2
ENCODING 162
SWIDTH 540 0
DWIDTH 21 0
BBX 18 29 2 -1
BITMAP
00C000
00C000
00C000
00C000
07FC00
1FFE00
3C0700
700380
7001C0
E00080
E00000
C00000
C00000
C00000
C00000
C00000
C00000
C00000
C00000
E00000
6001C0
700180
380380
1E0F00
0FFE00
03F800
00C000
00C000
00C000
ENDCHAR
STARTCHAR 00A3
ENCODING 163
SWIDTH 565 0
DWIDTH 22 0
BBX 20 28 1 0
BITMAP
003E00
00FF80
01E3C0
0380C0
0300E0
030060
070030
070000
070000
070000
070000
070000
070000
FFFE00
FFFE00
070000
070000
070000
070000
070000
070000
070000
070000
070000
070000
0F0000
FFFFE0
FFFFE0
ENDCHAR
STARTCHAR 00A4
ENCODING 164
SWIDTH 642 0
DWIDTH 25 0
BBX 22 22 1 3
BITMAP
400008
E0FE1C
73FFB8
3F83F0
1E00E0
180070
380030
300018
700018
600018
600018
600018
600018
700018
300018
380030
180070
1E00E0
3F83F0
73FFB8
E0FE1C
400008
ENDCHAR
STARTCHAR 00A5
ENCODING 165
SWIDTH 540 0
DWIDTH 21 0
BBX 21 28 0 0
BITMAP
E00038
600070
700060
3800E0
1800C0
1C01C0
0C0180
0E0380
070700
070600
038E00
018C00
01DC00
00D800
00F800
007000
1FFFC0
1FFFC0
007000
007000
007000
1FFFC0
1FFFC0
007000
007000
007000
007000
007000
ENDCHAR
STARTCHAR 00A6
ENCODING 166
SWIDTH 231 0
DWIDTH 9 0
BBX 3 33 3 -5
BITMAP
E0
E0
E0
E0
E0
E0
E0
E0
E0
E0
E0
E0
E0
E0
00
00
00
00
00
00
E0
E0
E0
E0
E0
E0
E0
E0
E0
E0
E0
E0
E0
ENDCHAR
STARTCHAR 00A7
ENCODING 167
SWIDTH 514 0
DWIDTH 20 0
BBX 17 31 2 -6
BITMAP
07E000
1FF800
383C00
700E00
600600
E00700
600000
700000
3C0000
1FC000
1FF800
787E00
E00F00
C00380
C00380
C00180
E00380
780300
3F0700
0FFE00
00FC00
001E00
000700
000300
000300
E00300
600700
700700
3C1E00
1FFC00
07F000
ENDCHAR
STARTCHAR 00A8
ENCODING 168
SWIDTH 488 0
DWIDTH 19 0
BBX 10 3 5 32
BITMAP
C1C0
C1C0
C1C0
ENDCHAR
STARTCHAR 00A9
ENCODING 169
SWIDTH 771 0
DWIDTH 30 0
BBX 28 28 1 -1
BITMAP
003FC000
00FFF000
03F0FC00
07801E00
0E000700
1C000380
381F81C0
303FE0C0
707070E0
60E03060
61C01060
E1800070
C1800030
C1800030
C1800030
C1800030
E1800070
61C01070
60E03060
707070E0
303FE0C0
381F81C0
1C000380
0E000700
07801E00
03F0FC00
00FFF000
001FC000
ENDCHAR
STARTCHAR 00AA
ENCODING 170
SWIDTH 308 0
DWIDTH 12 0
BBX 9 11 2 10
BITMAP
3E00
7F00
C300
4180
0F80
7F80
E180
C180
8380
C780
FD80
ENDCHAR
STARTCHAR 00AB
ENCODING 171
SWIDTH 514 0
DWIDTH 20 0
BBX 14 16 3 2
BITMAP
0204
030C
0618
0C38
1C70
3860
30C0
6180
E380
61C0
30C0
1860
1C30
0E38
061C
030C
ENDCHAR
STARTCHAR 00AC
ENCODING 172
SWIDTH 591 0
DWIDTH 23 0
BBX 19 7 2 8
BITMAP
FFFFE0
FFFFE0
000060
000060
000060
000060
000060
ENDCHAR
STARTCHAR 00AD
ENCODING 173
SWIDTH 411 0
DWIDTH 16 0
BBX 12 2 2 11
BITMAP
FFF0
FFF0
ENDCHAR
STARTCHAR 00AE
ENCODING 174
SWIDTH 617 0
DWIDTH 24 0
BBX 18 19 3 11
BITMAP
03F000
0FFC00
1C1E00
380700
700380
63E180
C230C0
C218C0
C218C0
C3F0C0
C220C0
C230C0
C230C0
621980
700380
380700
1C1E00
0FFC00
03F000
ENDCHAR
STARTCHAR 00AF
ENCODING 175
SWIDTH 488 0
DWIDTH 19 0
BBX 9 2 5 33
BITMAP
FF80
FF80
ENDCHAR
STARTCHAR 00B0
ENCODING 176
SWIDTH 462 0
DWIDTH 18 0
BBX 14 14 1 14
BITMAP
07C0
1FE0
3878
7018
601C
E00C
C00C
C00C
C00C
601C
7018
3878
1FF0
07C0
ENDCHAR
STARTCHAR 00B1
ENCODING 177
SWIDTH 591 0
DWIDTH 23 0
BBX 19 18 2 3
BITMAP
006000
006000
006000
006000
006000
FFFFE0
FFFFE0
006000
006000
006000
006000
006000
006000
000000
000000
000000
FFFFE0
FFFFE0
ENDCHAR
STARTCHAR 00B2
ENCODING 178
SWIDTH 385 0
DWIDTH 15 0
BBX 11 18 2 10
BITMAP
1F00
3FC0
70E0
E060
C060
C060
0060
0060
00E0
01C0
0380
0700
0E00
1C00
3800
6000
FFE0
FFE0
ENDCHAR
STARTCHAR 00B3
ENCODING 179
SWIDTH 385 0
DWIDTH 15 0
BBX 11 18 2 10
BITMAP
FFC0
FFC0
01C0
0380
0700
0E00
1C00
3F00
1F80
01C0
00C0
0060
0060
0060
C0C0
E1C0
7F80
1E00
ENDCHAR
STARTCHAR 00B4
ENCODING 180
SWIDTH 462 0
DWIDTH 18 0
BBX 4 6 7 31
BITMAP
30
30
30
60
60
E0
ENDCHAR
STARTCHAR 00B5
ENCODING 181
SWIDTH 591 0
DWIDTH 23 0
BBX 17 30 3 -9
BITMAP
C00180
C00180
C00180
C00180
C00180
C00180
C00180
C00180
C00180
C00180
C00180
C00180
C00180
C00180
C00180
E00380
E00380
F00780
FC1D80
DFF980
C7E180
C00000
C00000
C00000
C00000
C00000
C00000
C00000
C00000
C00000
ENDCHAR
STARTCHAR 00B6
ENCODING 182
SWIDTH 617 0
DWIDTH 24 0
BBX 17 33 3 -5
BITMAP
07F980
1FF980
3FF980
3FF980
7FF980
7FF980
FFF980
FFF980
FFF980
FFF980
FFF980
7FF980
7FF980
7FF980
3FF980
1FF980
07F980
003980
003980
003980
003980
003980
003980
003980
003980
003980
003980
003980
003980
003980
003980
003980
003980
ENDCHAR
STARTCHAR 00B7
ENCODING 183
SWIDTH 205 0
DWIDTH 8 0
BBX 4 4 2 10
BITMAP
60
F0
F0
20
ENDCHAR
STARTCHAR 00B8
ENCODING 184
SWIDTH 385 0
DWIDTH 15 0
BBX 6 10 5 -9
BITMAP
30
30
30
70
78
18
0C
18
F8
F0
ENDCHAR
STARTCHAR 00B9
ENCODING 185
SWIDTH 308 0
DWIDTH 12 0
BBX 6 18 2 10
BITMAP
1C
7C
EC
8C
0C
0C
0C
0C
0C
0C
0C
0C
0C
0C
0C
0C
0C
0C
ENDCHAR
STARTCHAR 00BA
ENCODING 186
SWIDTH 334 0
DWIDTH 13 0
BBX 10 11 2 10
BITMAP
3E00
7F00
E180
C180
C0C0
C0C0
C0C0
C180
E380
7F00
1C00
ENDCHAR
STARTCHAR 00BB
ENCODING 187
SWIDTH 514 0
DWIDTH 20 0
BBX 14 17 3 2
BITMAP
C100
C380
6180
30C0
3860
1C70
0C38
0618
070C
0618
0C30
1870
38E0
70C0
6180
C300
0100
ENDCHAR
STARTCHAR 00BC
ENCODING 188
SWIDTH 951 0
DWIDTH 37 0
BBX 30 28 2 0
BITMAP
1C000100
7C000380
EC000300
8C000700
0C000E00
0C001C00
0C001800
0C003000
0C007000
0C00E000
0C01C000
0C0180C0
0C038180
0C070180
0C0E0380
0C0C0300
0C180700
0C380600
00700610
00E00C10
00C00C10
01C01810
03801810
07003FFC
06003FFC
0C000010
1C000010
08000010
ENDCHAR
STARTCHAR 00BD
ENCODING 189
SWIDTH 900 0
DWIDTH 35 0
BBX 31 28 2 0
BITMAP
1C000100
7C000380
EC000300
8C000700
0C000E00
0C001C00
0C001800
0C003000
0C007000
0C00E000
0C01C0E0
0C0183F8
0C03871C
0C070E06
0C0E0C06
0C1C0C06
0C180006
0C380006
0070000E
00E0001C
00C00038
01C00070
038000E0
070001C0
0E000380
0C000700
1C000FFE
08000FFE
ENDCHAR
STARTCHAR 00BE
ENCODING 190
SWIDTH 951 0
DWIDTH 37 0
BBX 33 28 2 0
BITMAP
FFC0002000
FFC0007000
01C000E000
038000C000
070001C000
0E00038000
1C00070000
3F00060000
1F800C0000
01C01C0000
00C0380000
0060701800
0060603000
0060E03000
C0C1C06000
E1C3806000
7F8300C000
1E0600C000
000E018600
001C018600
0038030600
0030030600
0070070600
00E007FF80
01C007FF80
0380000600
0300000600
0100000600
ENDCHAR
STARTCHAR 00BF
ENCODING 191
SWIDTH 514 0
DWIDTH 20 0
BBX 16 28 2 -7
BITMAP
01C0
01C0
01C0
0000
0000
0000
0000
0000
01C0
01C0
0180
0180
0380
0700
0E00
3C00
7800
6000
E000
C000
C000
C003
E003
E007
700E
781C
3FF8
0FF0
ENDCHAR
STARTCHAR 00C0
ENCODING 192
SWIDTH 617 0
DWIDTH 24 0
BBX 22 37 1 0
BITMAP
00C000
00C000
006000
006000
007000
003000
000000
000000
000000
003800
007800
007800
00FC00
00EC00
00CC00
01CE00
018600
018600
038700
030300
030380
070180
060180
0601C0
0E00C0
0C00C0
1C00E0
1C0060
1FFFE0
3FFFF0
300030
300030
700038
600018
60001C
E0001C
C0000C
ENDCHAR
STARTCHAR 00C1
ENCODING 193
SWIDTH 617 0
DWIDTH 24 0
BBX 22 37 1 0
BITMAP
000C00
000C00
001800
001800
001800
003000
000000
000000
000000
003800
007800
007800
00FC00
00CC00
00CC00
01CE00
018600
018600
038700
030300
030380
070380
060180
0601C0
0E00C0
0C00C0
1C00E0
1C0060
1FFFE0
3FFFF0
300030
300030
700038
600018
60001C
E0001C
C0000C
ENDCHAR
STARTCHAR 00C2
ENCODING 194
SWIDTH 617 0
DWIDTH 24 0
BBX 22 37 1 0
BITMAP
003000
007800
00FC00
01CE00
018600
020300
000000
000000
000000
003800
007800
007800
00FC00
00CC00
00CC00
01CE00
018600
018600
038700
030300
030380
070380
060180
0601C0
0E00C0
0C00C0
1C00E0
1C0060
1FFFE0
3FFFF0
300030
300030
700038
600018
60001C
E0001C
C0000C
ENDCHAR
STARTCHAR 00C3
ENCODING 195
SWIDTH 617 0
DWIDTH 24 0
BBX 22 37 1 0
BITMAP
01C180
03E180
073980
061F00
020F00
000000
000000
000000
000000
003800
007800
007800
00FC00
00CC00
00CC00
01CE00
018600
018600
038700
030300
030380
070380
060180
0601C0
0E00C0
0C00C0
1C00E0
1C0060
1FFFE0
3FFFF0
300030
300030
700038
600018
60001C
E0001C
C0000C
ENDCHAR
STARTCHAR 00C4
ENCODING 196
SWIDTH 617 0
DWIDTH 24 0
BBX 22 35 1 0
BITMAP
038700
038700
038700
000000
000000
000000
000000
003800
007800
007800
00FC00
00CC00
00CC00
01CE00
018600
018600
038700
030300
030380
070380
060180
0601C0
0E00C0
0C00C0
1C00E0
1C0060
1FFFE0
3FFFF0
300030
300030
700038
600018
60001C
E0001C
C0000C
ENDCHAR
STARTCHAR 00C5
ENCODING 197
SWIDTH 617 0
DWIDTH 24 0
BBX 22 38 1 0
BITMAP
007800
00FC00
01C600
018600
018600
01CE00
00FC00
007800
000000
000000
003800
007800
007800
00FC00
00CC00
00CC00
01CE00
018600
018600
038700
030300
030380
070380
060180
0601C0
0E00C0
0C00C0
1C00E0
1C0060
1FFFE0
3FFFF0
300030
300030
700038
600018
60001C
E0001C
C0000C
ENDCHAR
STARTCHAR 00C6
ENCODING 198
SWIDTH 900 0
DWIDTH 35 0
BBX 32 28 1 0
BITMAP
003FFFFF
007FFFFF
00618000
00E18000
00C18000
00C18000
01C18000
01818000
01818000
03818000
03018000
03018000
07018000
0601FFFC
0601FFFC
0E018000
0C018000
1C018000
1C018000
1FFF8000
3FFF8000
30018000
30018000
70018000
60018000
60018000
E001FFFF
C001FFFF
ENDCHAR
STARTCHAR 00C7
ENCODING 199
SWIDTH 720 0
DWIDTH 28 0
BBX 25 37 1 -9
BITMAP
007F8000
03FFE000
07C0F800
0F003C00
1C000E00
38000600
30000700
70000300
60000380
60000000
E0000000
E0000000
E0000000
E0000000
E0000000
E0000000
E0000000
E0000000
60000000
60000380
70000300
30000700
38000600
1C000E00
0E003C00
07C0F800
03FFE000
007F8000
00040000
000C0000
000E0000
000F0000
00030000
00030000
00030000
001F0000
001C0000
ENDCHAR
STARTCHAR 00C8
ENCODING 200
SWIDTH 565 0
DWIDTH 22 0
BBX 17 37 3 0
BITMAP
030000
038000
018000
018000
00C000
00C000
000000
000000
000000
FFFF80
FFFF80
C00000
C00000
C00000
C00000
C00000
C00000
C00000
C00000
C00000
C00000
C00000
FFFE00
FFFE00
C00000
C00000
C00000
C00000
C00000
C00000
C00000
C00000
C00000
C00000
C00000
FFFF80
FFFF80
ENDCHAR
STARTCHAR 00C9
ENCODING 201
SWIDTH 565 0
DWIDTH 22 0
BBX 17 37 3 0
BITMAP
003000
006000
006000
006000
00C000
00C000
000000
000000
000000
FFFF80
FFFF80
C00000
C00000
C00000
C00000
C00000
C00000
C00000
C00000
C00000
C00000
C00000
FFFE00
FFFE00
C00000
C00000
C00000
C00000
C00000
C00000
C00000
C00000
C00000
C00000
C00000
FFFF80
FFFF80
ENDCHAR
STARTCHAR 00CA
ENCODING 202
SWIDTH 565 0
DWIDTH 22 0
BBX 17 37 3 0
BITMAP
018000
03C000
076000
0E7000
0C3000
101800
000000
000000
000000
FFFF80
FFFF80
C00000
C00000
C00000
C00000
C00000
C00000
C00000
C00000
C00000
C00000
C00000
FFFE00
FFFE00
C00000
C00000
C00000
C00000
C00000
C00000
C00000
C00000
C00000
C00000
C00000
FFFF80
FFFF80
ENDCHAR
STARTCHAR 00CB
ENCODING 203
SWIDTH 565 0
DWIDTH 22 0
BBX 17 35 3 0
BITMAP
1C3800
1C3800
1C3800
000000
000000
000000
000000
FFFF80
FFFF80
C00000
C00000
C00000
C00000
C00000
C00000
C00000
C00000
C00000
C00000
C00000
FFFE00
FFFE00
C00000
C00000
C00000
C00000
C00000
C00000
C00000
C00000
C00000
C00000
C00000
FFFF80
FFFF80
ENDCHAR
STARTCHAR 00CC
ENCODING 204
SWIDTH 205 0
DWIDTH 8 0
BBX 4 37 1 0
BITMAP
C0
60
60
60
30
30
00
00
00
30
30
30
30
30
30
30
30
30
30
30
30
30
30
30
30
30
30
30
30
30
30
30
30
30
30
30
30
ENDCHAR
STARTCHAR 00CD
ENCODING 205
SWIDTH 205 0
DWIDTH 8 0
BBX 4 37 3 0
BITMAP
30
30
60
60
60
C0
00
00
00
C0
C0
C0
C0
C0
C0
C0
C0
C0
C0
C0
C0
C0
C0
C0
C0
C0
C0
C0
C0
C0
C0
C0
C0
C0
C0
C0
C0
ENDCHAR
STARTCHAR 00CE
ENCODING 206
SWIDTH 205 0
DWIDTH 8 0
BBX 10 36 -1 0
BITMAP
0E00
1B00
3300
6180
E0C0
0000
0000
0000
0C00
0C00
0C00
0C00
0C00
0C00
0C00
0C00
0C00
0C00
0C00
0C00
0C00
0C00
0C00
0C00
0C00
0C00
0C00
0C00
0C00
0C00
0C00
0C00
0C00
0C00
0C00
0C00
ENDCHAR
STARTCHAR 00CF
ENCODING 207
SWIDTH 205 0
DWIDTH 8 0
BBX 10 35 -1 0
BITMAP
E1C0
E1C0
E1C0
0000
0000
0000
0000
0C00
0C00
0C00
0C00
0C00
0C00
0C00
0C00
0C00
0C00
0C00
0C00
0C00
0C00
0C00
0C00
0C00
0C00
0C00
0C00
0C00
0C00
0C00
0C00
0C00
0C00
0C00
0C00
ENDCHAR
STARTCHAR 00D0
ENCODING 208
SWIDTH 642 0
DWIDTH 25 0
BBX 24 28 0 0
BITMAP
3FFF00
3FFFC0
3803F0
380070
380038
38001C
38000C
38000E
380006
380006
380006
380007
380007
FFF007
FFF007
380007
380007
380006
380006
380006
38000E
38000C
38001C
380038
380078
3803F0
3FFFC0
3FFF00
ENDCHAR
STARTCHAR 00D1
ENCODING 209
SWIDTH 668 0
DWIDTH 26 0
BBX 20 36 3 0
BITMAP
038300
07E300
067300
063F00
060E00
000000
000000
000000
C00030
E00030
F00030
F00030
F80030
DC0030
CC0030
CE0030
C70030
C30030
C38030
C1C030
C0C030
C0E030
C07030
C03030
C03830
C01C30
C00C30
C00E30
C00730
C003B0
C003B0
C001F0
C000F0
C000F0
C00070
C00030
ENDCHAR
STARTCHAR 00D2
ENCODING 210
SWIDTH 720 0
DWIDTH 28 0
BBX 26 37 1 0
BITMAP
00300000
00300000
00180000
00180000
00180000
000C0000
00000000
00000000
00000000
007F8000
03FFE000
07C0F800
0F003C00
1C000E00
38000600
30000700
70000300
60000380
60000180
E0000180
E0000180
E00001C0
E00001C0
E00001C0
E00001C0
E0000180
E0000180
60000180
60000380
70000300
30000700
38000600
1C000E00
0E003C00
07C0F800
03FFE000
007F8000
ENDCHAR
STARTCHAR 00D3
ENCODING 211
SWIDTH 720 0
DWIDTH 28 0
BBX 26 36 1 0
BITMAP
00030000
00030000
00060000
00060000
000E0000
00000000
00000000
00000000
007F8000
03FFE000
07C0F800
0F003C00
1C000E00
38000600
30000700
70000300
60000380
60000180
E0000180
E0000180
E00001C0
E00001C0
E00001C0
E00001C0
E0000180
E0000180
60000180
60000380
70000300
30000700
38000600
1C000E00
0E003C00
07C0F800
03FFE000
007F8000
ENDCHAR
STARTCHAR 00D4
ENCODING 212
SWIDTH 720 0
DWIDTH 28 0
BBX 26 36 1 0
BITMAP
000C0000
001E0000
00370000
00738000
00E1C000
00000000
00000000
00000000
007F8000
03FFE000
07C0F800
0F003C00
1C000E00
38000600
30000700
70000300
60000380
60000180
E0000180
E0000180
E00001C0
E00001C0
E00001C0
E00001C0
E0000180
E0000180
60000180
60000380
70000300
30000700
38000600
1C000E00
0E003C00
07C0F800
03FFE000
007F8000
ENDCHAR
STARTCHAR 00D5
ENCODING 213
SWIDTH 720 0
DWIDTH 28 0
BBX 26 35 1 0
BITMAP
00706000
00F86000
00CE6000
0087C000
0083C000
00000000
00000000
007F8000
03FFE000
07C0F800
0F003C00
1C000E00
38000600
30000700
70000300
60000380
60000180
E0000180
E0000180
E00001C0
E00001C0
E00001C0
E00001C0
E0000180
E0000180
60000180
60000380
70000300
30000700
38000600
1C000E00
0E003C00
07C0F800
03FFE000
007F8000
ENDCHAR
STARTCHAR 00D6
ENCODING 214
SWIDTH 720 0
DWIDTH 28 0
BBX 26 35 1 0
BITMAP
00E1C000
00E1C000
00E1C000
00000000
00000000
00000000
00000000
007F8000
03FFE000
07C0F800
0F003C00
1C000E00
38000600
30000700
70000300
60000380
60000180
E0000180
E0000180
E00001C0
E00001C0
E00001C0
E00001C0
E0000180
E0000180
60000180
60000380
70000300
30000700
38000600
1C000E00
0E003C00
07C0F800
03FFE000
007F8000
ENDCHAR
STARTCHAR 00D7
ENCODING 215
SWIDTH 488 0
DWIDTH 19 0
BBX 14 14 2 7
BITMAP
4008
E01C
7038
3870
1CE0
0FC0
0780
0780
0FC0
1CE0
3870
7038
E01C
4008
ENDCHAR
STARTCHAR 00D8
ENCODING 216
SWIDTH 720 0
DWIDTH 28 0
BBX 26 28 1 0
BITMAP
007F8080
03FFE1C0
07C0FB80
0F003F80
1C000F00
38000F00
30001F00
70003B80
60007380
6000E180
E001C180
E0038180
E00701C0
E00E01C0
E01C01C0
E03801C0
E0700180
E0E00180
61C00180
63800380
77000300
3E000700
3C000600
3C000E00
7E003C00
77C0F800
E3FFE000
407F8000
ENDCHAR
STARTCHAR 00D9
ENCODING 217
SWIDTH 694 0
DWIDTH 27 0
BBX 21 37 3 0
BITMAP
00C000
00C000
006000
006000
007000
003000
000000
000000
000000
C00018
C00018
C00018
C00018
C00018
C00018
C00018
C00018
C00018
C00018
C00018
C00018
C00018
C00018
C00018
C00018
C00018
C00018
C00018
C00018
E00038
E00038
700070
700070
3C01E0
1F07C0
07FF80
01FC00
ENDCHAR
STARTCHAR 00DA
ENCODING 218
SWIDTH 694 0
DWIDTH 27 0
BBX 21 37 3 0
BITMAP
001800
001800
003000
003000
003000
006000
000000
000000
000000
C00018
C00018
C00018
C00018
C00018
C00018
C00018
C00018
C00018
C00018
C00018
C00018
C00018
C00018
C00018
C00018
C00018
C00018
C00018
C00018
E00038
E00038
700070
700070
3C01E0
1F07C0
07FF80
01FC00
ENDCHAR
STARTCHAR 00DB
ENCODING 219
SWIDTH 694 0
DWIDTH 27 0
BBX 21 37 3 0
BITMAP
007000
00F000
00D800
018C00
030E00
000600
000000
000000
000000
C00018
C00018
C00018
C00018
C00018
C00018
C00018
C00018
C00018
C00018
C00018
C00018
C00018
C00018
C00018
C00018
C00018
C00018
C00018
C00018
E00038
E00038
700070
700070
3C01E0
1F07C0
07FF80
01FC00
ENDCHAR
STARTCHAR 00DC
ENCODING 220
SWIDTH 694 0
DWIDTH 27 0
BBX 21 35 3 0
BITMAP
030700
030700
030700
000000
000000
000000
000000
C00018
C00018
C00018
C00018
C00018
C00018
C00018
C00018
C00018
C00018
C00018
C00018
C00018
C00018
C00018
C00018
C00018
C00018
C00018
C00018
E00038
E00038
700070
700070
3C01E0
1F07C0
07FF80
01FC00
ENDCHAR
STARTCHAR 00DD
ENCODING 221
SWIDTH 540 0
DWIDTH 21 0
BBX 21 37 0 0
BITMAP
001800
003800
003000
003000
006000
006000
000000
000000
000000
E00038
600070
700060
3800E0
1800C0
1C01C0
0C0180
0E0380
070700
070600
038E00
018C00
01DC00
00D800
00F800
007000
007000
007000
007000
007000
007000
007000
007000
007000
007000
007000
007000
007000
ENDCHAR
STARTCHAR 00DE
ENCODING 222
SWIDTH 591 0
DWIDTH 23 0
BBX 18 28 3 0
BITMAP
C00000
C00000
C00000
C00000
C00000
C00000
FFF800
FFFE00
C00F00
C00380
C001C0
C001C0
C000C0
C000C0
C000C0
C000C0
C000C0
C001C0
C00380
C00F00
FFFE00
FFF800
C00000
C00000
C00000
C00000
C00000
C00000
ENDCHAR
STARTCHAR 00DF
ENCODING 223
SWIDTH 591 0
DWIDTH 23 0
BBX 17 28 3 0
BITMAP
0FC000
3FF000
787800
701C00
E00E00
C00E00
C00600
C00600
C00E00
C00E00
C01C00
C03C00
C1F000
C1F800
C07E00
C00700
C00380
C00180
C00180
C00180
C00180
C00180
C00180
C00380
C00700
C63E00
C7FC00
C7F000
ENDCHAR
STARTCHAR 00E0
ENCODING 224
SWIDTH 540 0
DWIDTH 21 0
BBX 17 30 2 0
BITMAP
030000
030000
018000
018000
01C000
00C000
000000
000000
000000
07F000
1FFC00
3C1E00
700700
600380
E00380
000180
000180
003F80
07FF80
3FC180
780180
E00180
C00380
C00380
C00380
C00780
E00F80
703D80
3FF180
0FC000
ENDCHAR
STARTCHAR 00E1
ENCODING 225
SWIDTH 540 0
DWIDTH 21 0
BBX 17 30 2 0
BITMAP
003000
007000
006000
006000
00C000
00C000
000000
000000
000000
07F000
1FFC00
3C1E00
700700
600380
E00380
000180
000180
003F80
07FF80
3FC180
780180
E00180
C00380
C00380
C00380
C00780
E00F80
703D80
3FF180
0FC000
ENDCHAR
STARTCHAR 00E2
ENCODING 226
SWIDTH 540 0
DWIDTH 21 0
BBX 17 29 2 0
BITMAP
00C000
01E000
03F000
073800
0E1C00
000000
000000
000000
07F000
1FFC00
3C1E00
700700
600380
E00380
000180
000180
003F80
07FF80
3FC180
780180
E00180
C00380
C00380
C00380
C00780
E00F80
703D80
3FF180
0FC000
ENDCHAR
STARTCHAR 00E3
ENCODING 227
SWIDTH 540 0
DWIDTH 21 0
BBX 17 28 2 0
BITMAP
070600
0F8600
0CE600
187C00
083800
000000
000000
07F000
1FFC00
3C1E00
700700
600380
E00380
000180
000180
003F80
07FF80
3FC180
780180
E00180
C00380
C00380
C00380
C00780
E00F80
703D80
3FF180
0FC000
ENDCHAR
STARTCHAR 00E4
ENCODING 228
SWIDTH 540 0
DWIDTH 21 0
BBX 17 28 2 0
BITMAP
0E1C00
0E1C00
0E1C00
000000
000000
000000
000000
07F000
1FFC00
3C1E00
700700
600380
E00380
000180
000180
003F80
07FF80
3FC180
780180
E00180
C00380
C00380
C00380
C00780
E00F80
703D80
3FF180
0FC000
ENDCHAR
STARTCHAR 00E5
ENCODING 229
SWIDTH 540 0
DWIDTH 21 0
BBX 17 31 2 0
BITMAP
01E000
03F000
073800
061800
061800
063800
03F000
01E000
000000
000000
07F000
1FFC00
3C1E00
700700
600380
E00380
000180
000180
003F80
07FF80
3FC180
780180
E00180
C00380
C00380
C00380
C00780
E00F80
703D80
3FF180
0FC000
ENDCHAR
STARTCHAR 00E6
ENCODING 230
SWIDTH 951 0
DWIDTH 37 0
BBX 33 21 2 0
BITMAP
07F007E000
1FFC1FF800
3C1E3C3C00
7007700E00
6003E00700
6003C00300
0001C00380
0001800180
0001800180
07FFFFFF80
3FFFFFFF80
7801800000
E001800000
C003800000
C003C00000
C003C00380
C007E00300
E00E700E00
703C3C3E00
3FF81FF800
1FC007E000
ENDCHAR
STARTCHAR 00E7
ENCODING 231
SWIDTH 540 0
DWIDTH 21 0
BBX 18 30 2 -9
BITMAP
03F800
0FFE00
3E0F00
380380
7001C0
E00180
E00000
C00000
C00000
C00000
C00000
C00000
C00000
C00000
E00000
E00180
7001C0
380380
3E0F00
0FFE00
03F800
00C000
00C000
01C000
00E000
003000
003000
007000
03E000
03C000
ENDCHAR
STARTCHAR 00E8
ENCODING 232
SWIDTH 591 0
DWIDTH 23 0
BBX 19 30 2 0
BITMAP
018000
018000
018000
00C000
00C000
00E000
000000
000000
000000
03F800
0FFE00
3E0F00
380380
7001C0
E000C0
E000C0
C000E0
C000E0
FFFFE0
FFFFE0
C00000
C00000
C00000
E00000
E000C0
7001C0
380380
1E0F00
0FFE00
03F800
ENDCHAR
STARTCHAR 00E9
ENCODING 233
SWIDTH 591 0
DWIDTH 23 0
BBX 19 29 2 0
BITMAP
003800
003000
003000
006000
006000
000000
000000
000000
03F800
0FFE00
3E0F00
380380
7001C0
E000C0
E000C0
C000E0
C000E0
FFFFE0
FFFFE0
C00000
C00000
C00000
E00000
E000C0
7001C0
380380
1E0F00
0FFE00
03F800
ENDCHAR
STARTCHAR 00EA
ENCODING 234
SWIDTH 591 0
DWIDTH 23 0
BBX 19 29 2 0
BITMAP
00E000
01E000
03B000
031800
060C00
000000
000000
000000
03F800
0FFE00
3E0F00
380380
7001C0
E000C0
E000C0
C000E0
C000E0
FFFFE0
FFFFE0
C00000
C00000
C00000
E00000
E000C0
7001C0
380380
1E0F00
0FFE00
03F800
ENDCHAR
STARTCHAR 00EB
ENCODING 235
SWIDTH 591 0
DWIDTH 23 0
BBX 19 28 2 0
BITMAP
0E0C00
0E0C00
0E0C00
000000
000000
000000
000000
03F800
0FFE00
3E0F00
380380
7001C0
E000C0
E000C0
C000E0
C000E0
FFFFE0
FFFFE0
C00000
C00000
C00000
E00000
E000C0
7001C0
380380
1E0F00
0FFE00
03F800
ENDCHAR
STARTCHAR 00EC
ENCODING 236
SWIDTH 205 0
DWIDTH 8 0
BBX 4 30 1 0
BITMAP
C0
60
60
60
30
30
00
00
00
30
30
30
30
30
30
30
30
30
30
30
30
30
30
30
30
30
30
30
30
30
ENDCHAR
STARTCHAR 00ED
ENCODING 237
SWIDTH 205 0
DWIDTH 8 0
BBX 4 30 3 0
BITMAP
30
30
60
60
60
C0
00
00
00
C0
C0
C0
C0
C0
C0
C0
C0
C0
C0
C0
C0
C0
C0
C0
C0
C0
C0
C0
C0
C0
ENDCHAR
STARTCHAR 00EE
ENCODING 238
SWIDTH 205 0
DWIDTH 8 0
BBX 10 30 -1 0
BITMAP
0C00
1E00
3B00
3380
6180
80C0
0000
0000
0000
0C00
0C00
0C00
0C00
0C00
0C00
0C00
0C00
0C00
0C00
0C00
0C00
0C00
0C00
0C00
0C00
0C00
0C00
0C00
0C00
0C00
ENDCHAR
STARTCHAR 00EF
ENCODING 239
SWIDTH 205 0
DWIDTH 8 0
BBX 10 28 -1 0
BITMAP
E1C0
E1C0
E1C0
0000
0000
0000
0000
0C00
0C00
0C00
0C00
0C00
0C00
0C00
0C00
0C00
0C00
0C00
0C00
0C00
0C00
0C00
0C00
0C00
0C00
0C00
0C00
0C00
ENDCHAR
STARTCHAR 00F0
ENCODING 240
SWIDTH 565 0
DWIDTH 22 0
BBX 19 30 2 1
BITMAP
000600
01CE00
01FC00
007C00
003E00
006700
004380
000180
0001C0
03F0C0
0FFEC0
3E0FC0
3803E0
7001E0
E001E0
E000E0
C000E0
C000E0
C000E0
C00060
C00060
C000E0
C000E0
E000C0
E001C0
700180
380380
3E0F00
0FFE00
03F800
ENDCHAR
STARTCHAR 00F1
ENCODING 241
SWIDTH 591 0
DWIDTH 23 0
BBX 17 28 3 0
BITMAP
0E0C00
1F8C00
19FC00
107800
000000
000000
000000
C3F000
CFFC00
DC1E00
F00700
E00300
E00380
C00180
C00180
C00180
C00180
C00180
C00180
C00180
C00180
C00180
C00180
C00180
C00180
C00180
C00180
C00180
ENDCHAR
STARTCHAR 00F2
ENCODING 242
SWIDTH 591 0
DWIDTH 23 0
BBX 19 30 2 0
BITMAP
030000
038000
018000
018000
00C000
00C000
000000
000000
000000
03F800
0FFE00
1E0F00
380380
7001C0
E000C0
E000E0
C000E0
C00060
C00060
C00060
C00060
C00060
C000E0
E000E0
E000C0
7001C0
380380
1E0F00
0FFE00
03F800
ENDCHAR
STARTCHAR 00F3
ENCODING 243
SWIDTH 591 0
DWIDTH 23 0
BBX 19 29 2 0
BITMAP
003000
003000
006000
006000
00E000
000000
000000
000000
03F800
0FFE00
1E0F00
380380
7001C0
E000C0
E000E0
C000E0
C00060
C00060
C00060
C00060
C00060
C000E0
E000E0
E000C0
7001C0
380380
1E0F00
0FFE00
03F800
ENDCHAR
STARTCHAR 00F4
ENCODING 244
SWIDTH 591 0
DWIDTH 23 0
BBX 19 29 2 0
BITMAP
00E000
01E000
03B000
031800
060C00
000000
000000
000000
03F800
0FFE00
1E0F00
380380
7001C0
E000C0
E000E0
C000E0
C00060
C00060
C00060
C00060
C00060
C000E0
E000E0
E000C0
7001C0
380380
1E0F00
0FFE00
03F800
ENDCHAR
STARTCHAR 00F5
ENCODING 245
SWIDTH 591 0
DWIDTH 23 0
BBX 19 28 2 0
BITMAP
070600
0FC600
0CE600
087E00
081C00
000000
000000
03F800
0FFE00
1E0F00
380380
7001C0
E000C0
E000E0
C000E0
C00060
C00060
C00060
C00060
C00060
C000E0
E000E0
E000C0
7001C0
380380
1E0F00
0FFE00
03F800
ENDCHAR
STARTCHAR 00F6
ENCODING 246
SWIDTH 591 0
DWIDTH 23 0
BBX 19 28 2 0
BITMAP
0E0C00
0E0C00
0E0C00
000000
000000
000000
000000
03F800
0FFE00
1E0F00
380380
7001C0
E000C0
E000E0
C000E0
C00060
C00060
C00060
C00060
C00060
C000E0
E000E0
E000C0
7001C0
380380
1E0F00
0FFE00
03F800
ENDCHAR
STARTCHAR 00F7
ENCODING 247
SWIDTH 540 0
DWIDTH 21 0
BBX 17 13 2 8
BITMAP
01C000
01C000
01C000
000000
000000
000000
FFFF80
FFFF80
000000
000000
01C000
01C000
01C000
ENDCHAR
STARTCHAR 00F8
ENCODING 248
SWIDTH 591 0
DWIDTH 23 0
BBX 21 21 1 0
BITMAP
01FC10
07FF38
0F07F0
1C01E0
3801E0
3003E0
700770
600E70
601C30
603830
607030
60E030
61C030
638070
660060
7C0060
3800E0
3C01C0
7F0780
EFFF00
41FC00
ENDCHAR
STARTCHAR 00F9
ENCODING 249
SWIDTH 591 0
DWIDTH 23 0
BBX 18 30 2 0
BITMAP
018000
018000
018000
00C000
00C000
00E000
000000
000000
000000
E000C0
E000C0
E000C0
E000C0
E000C0
E000C0
E000C0
E000C0
E000C0
E000C0
E000C0
E000C0
E000C0
E001C0
6001C0
6001C0
7003C0
3807C0
1E1EC0
0FFCC0
03F0C0
ENDCHAR
STARTCHAR 00FA
ENCODING 250
SWIDTH 591 0
DWIDTH 23 0
BBX 18 30 2 0
BITMAP
003000
003000
006000
006000
00C000
00C000
000000
000000
000000
E000C0
E000C0
E000C0
E000C0
E000C0
E000C0
E000C0
E000C0
E000C0
E000C0
E000C0
E000C0
E000C0
E001C0
6001C0
6001C0
7003C0
3807C0
1E1EC0
0FFCC0
03F0C0
ENDCHAR
STARTCHAR 00FB
ENCODING 251
SWIDTH 591 0
DWIDTH 23 0
BBX 18 30 2 0
BITMAP
00C000
01E000
03F000
073800
061800
080C00
000000
000000
000000
E000C0
E000C0
E000C0
E000C0
E000C0
E000C0
E000C0
E000C0
E000C0
E000C0
E000C0
E000C0
E000C0
E001C0
6001C0
6001C0
7003C0
3807C0
1E1EC0
0FFCC0
03F0C0
ENDCHAR
STARTCHAR 00FC
ENCODING 252
SWIDTH 591 0
DWIDTH 23 0
BBX 18 28 2 0
BITMAP
0E1C00
0E1C00
0E1C00
000000
000000
000000
000000
E000C0
E000C0
E000C0
E000C0
E000C0
E000C0
E000C0
E000C0
E000C0
E000C0
E000C0
E000C0
E000C0
E001C0
6001C0
6001C0
7003C0
3807C0
1E1EC0
0FFCC0
03F0C0
ENDCHAR
STARTCHAR 00FD
ENCODING 253
SWIDTH 514 0
DWIDTH 20 0
BBX 18 39 1 -9
BITMAP
003000
007000
006000
006000
00C000
00C000
000000
000000
000000
C000C0
E001C0
600180
700180
300380
300300
380300
180700
1C0600
0C0E00
0C0C00
0E0C00
061C00
071800
031800
033800
03B000
01B000
01E000
00E000
00E000
00C000
00C000
01C000
018000
018000
038000
030000
070000
060000
ENDCHAR
STARTCHAR 00FE
ENCODING 254
SWIDTH 591 0
DWIDTH 23 0
BBX 18 37 3 -9
BITMAP
C00000
C00000
C00000
C00000
C00000
C00000
C00000
C3F000
CFFC00
DE1E00
F80700
F00380
E00180
C001C0
C001C0
C000C0
C000C0
C000C0
C000C0
C000C0
C001C0
C001C0
E00180
F00380
F80700
DC1E00
CFFC00
C3F000
C00000
C00000
C00000
C00000
C00000
C00000
C00000
C00000
C00000
ENDCHAR
STARTCHAR 00FF
ENCODING 255
SWIDTH 514 0
DWIDTH 20 0
BBX 18 37 1 -9
BITMAP
0E1C00
0E1C00
0E1C00
000000
000000
000000
000000
C000C0
E001C0
600180
700180
300380
300300
380300
180700
1C0600
0C0E00
0C0C00
0E0C00
061C00
071800
031800
033800
03B000
01B000
01E000
00E000
00E000
00C000
00C000
01C000
018000
018000
038000
030000
070000
060000
ENDCHAR
ENDFONT
